<svg width="45" height="45" viewBox="0 0 45 45" fill="none" xmlns="http://www.w3.org/2000/svg">
<path d="M16.499 0C13.999 0 11.999 2 11.999 4.5C11.999 7 13.999 9 16.499 9H20.999V4.5C20.999 2 18.999 0 16.499 0ZM16.499 12H4.49902C1.99902 12 -0.000976562 14 -0.000976562 16.5C-0.000976562 19 1.99902 21 4.49902 21H16.499C18.999 21 20.999 19 20.999 16.5C20.999 14 18.999 12 16.499 12Z" fill="#36C5F0"/>
<path d="M44.999 16.5C44.999 14 42.999 12 40.499 12C37.999 12 35.999 14 35.999 16.5V21H40.499C42.999 21 44.999 19 44.999 16.5ZM32.999 16.5V4.5C32.999 2 30.999 0 28.499 0C25.999 0 23.999 2 23.999 4.5V16.5C23.999 19 25.999 21 28.499 21C30.999 21 32.999 19 32.999 16.5Z" fill="#2EB67D"/>
<path d="M28.499 45.0002C30.999 45.0002 32.999 43.0002 32.999 40.5002C32.999 38.0002 30.999 36.0002 28.499 36.0002H23.999V40.5002C23.999 42.9502 25.999 45.0002 28.499 45.0002ZM28.499 33.0002H40.499C42.999 33.0002 44.999 31.0002 44.999 28.5002C44.999 26.0002 42.999 24.0002 40.499 24.0002H28.499C25.999 24.0002 23.999 26.0002 23.999 28.5002C23.999 31.0002 25.999 33.0002 28.499 33.0002Z" fill="#ECB22E"/>
<path d="M-0.000976562 28.5002C-0.000976562 31.0002 1.99902 33.0002 4.49902 33.0002C6.99902 33.0002 8.99902 31.0002 8.99902 28.5002V24.0002H4.49902C1.99902 24.0002 -0.000976562 26.0002 -0.000976562 28.5002ZM11.999 28.5002V40.5002C11.999 43.0002 13.999 45.0002 16.499 45.0002C18.999 45.0002 20.999 43.0002 20.999 40.5002V28.5002C20.999 26.0002 18.999 24.0002 16.499 24.0002C13.999 24.0002 11.999 26.0002 11.999 28.5002Z" fill="#E01E5A"/>
</svg>
