<svg width="45" height="45" viewBox="0 0 45 45" fill="none" xmlns="http://www.w3.org/2000/svg">
<path d="M28.15 22.5C28.15 24.1 27.85 25.75 27.3 27.25C25.8 27.8 24.15 28.1 22.55 28.1C20.9 28.1 19.3 27.8 17.8 27.25C17.25 25.75 16.95 24.1 16.95 22.5C16.95 20.9 17.25 19.25 17.8 17.75C19.3 17.2 20.95 16.9 22.55 16.9C24.15 16.9 25.8 17.2 27.3 17.75C27.85 19.25 28.15 20.85 28.15 22.5ZM44.7 18.75H31.55L40.85 9.45C40.1 8.45 39.3 7.45 38.4 6.6C37.5 5.7 36.55 4.9 35.55 4.15L26.25 13.45V0.3C25 0.1 23.75 0 22.5 0C21.25 0 20 0.1 18.75 0.3V13.45L9.45 4.15C8.45 4.9 7.45 5.7 6.6 6.6C5.7 7.5 4.9 8.45 4.15 9.45L13.45 18.75H0.3C0.3 18.75 0 21.2 0 22.5C0 23.75 0.1 25 0.3 26.25H13.45L4.15 35.55C5.6 37.6 7.4 39.4 9.45 40.85L18.75 31.55V44.7C20 44.9 21.25 45 22.5 45C23.75 45 25 44.9 26.25 44.7V31.55L35.55 40.85C36.55 40.1 37.55 39.3 38.4 38.4C39.3 37.5 40.1 36.55 40.85 35.55L31.55 26.25H44.7C44.9 25.05 45 23.8 45 22.5C45 21.2 44.9 19.95 44.7 18.75Z" fill="#FF4A00"/>
</svg>
