<svg width="30" height="30" viewBox="0 0 30 30" fill="none" xmlns="http://www.w3.org/2000/svg">
<path d="M1.85439 22.2171C-2.13081 14.9616 0.517164 5.83934 7.78586 1.85413C15.0413 -2.13108 24.1636 0.530142 28.1488 7.7856C32.134 15.0411 29.4728 24.1633 22.2173 28.1486C14.9619 32.1338 5.8396 29.4725 1.85439 22.2171Z" fill="#F94343"/>
<path d="M15.7163 0C18.1524 1.32399 20.2443 3.33645 21.6742 5.94471C25.6594 13.2002 22.9982 22.3225 15.7428 26.3077C13.2272 27.6978 10.4733 28.2804 7.79883 28.148C12.1415 30.5179 17.5566 30.6901 22.2038 28.1348C29.4593 24.1496 32.1205 15.0273 28.1353 7.77181C25.5403 3.03193 20.7474 0.251558 15.7163 0Z" fill="#E53939"/>
<path d="M4.39691 22.6267C0.702983 15.8744 3.1656 7.41409 9.90471 3.72016C13.8502 1.56206 18.3782 1.49586 22.1913 3.17733C18.087 0.674988 12.7778 0.370471 8.24972 2.85957C1.51062 6.5535 -0.952004 15.027 2.75517 21.7661C4.29099 24.573 6.64769 26.6252 9.37511 27.8168C7.34941 26.5855 5.61498 24.8378 4.39691 22.6267Z" fill="#F76363"/>
<path d="M21.8995 9.2279C21.8863 9.21466 21.8863 9.20142 21.8863 9.18818C20.6153 6.8712 17.7819 5.67961 15.2664 7.05656C13.2671 8.15547 12.8964 10.2209 13.2407 11.7832C12.102 10.6578 10.1558 9.85018 8.16977 10.9491C5.65419 12.326 5.15108 15.358 6.40887 17.675C6.42211 17.6882 6.42211 17.7014 6.43535 17.7147C6.70014 18.231 9.52024 23.3416 19.5428 23.2622C24.9844 14.8416 22.1908 9.71778 21.8995 9.2279Z" fill="white"/>
</svg>
