<svg width="38" height="38" viewBox="0 0 38 38" fill="none" xmlns="http://www.w3.org/2000/svg">
<path d="M6.99613 12.3853C10.818 5.99038 19.1067 3.89756 25.5076 7.7297C31.9026 11.5516 33.9851 19.8462 30.1633 26.2412C26.3414 32.6362 18.0467 34.7187 11.6518 30.8968C5.25681 27.075 3.17428 18.7803 6.99613 12.3853Z" fill="#F94343"/>
<path d="M30.5553 13.0451C30.6352 15.5392 30.0238 18.0791 28.6486 20.3759C24.8268 26.7708 16.5321 28.8534 10.1371 25.0315C7.91334 23.7102 6.20834 21.8366 5.0947 19.6994C5.22948 24.1498 7.55884 28.4334 11.657 30.8801C18.052 34.702 26.3466 32.6195 30.1685 26.2245C32.6691 22.0533 32.6483 17.0666 30.5553 13.0451Z" fill="#E53939"/>
<path d="M7.8342 14.5458C11.3978 8.60591 19.0881 6.67025 25.022 10.2236C28.4925 12.306 30.6035 15.7923 31.032 19.5183C31.1085 15.1928 28.9301 10.9312 24.9376 8.54692C19.0037 4.99358 11.3031 6.93526 7.75579 12.8794C6.27458 15.3488 5.75281 18.1124 6.06798 20.7725C6.10282 18.6393 6.67115 16.4975 7.8342 14.5458Z" fill="#F76363"/>
<path d="M26.2008 22.0439C26.205 22.0276 26.2153 22.0216 26.2256 22.0156C27.4468 19.9747 27.0835 17.2323 24.87 15.9051C23.1072 14.8523 21.3346 15.5039 20.2779 16.4818C20.634 15.0857 20.376 13.2069 18.6192 12.1644C16.4057 10.8372 13.8223 11.8255 12.5951 13.8561C12.5908 13.8725 12.5805 13.8785 12.5763 13.8948C12.2957 14.3353 9.6096 18.8498 14.23 26.5971C23.2444 26.993 25.9528 22.493 26.2008 22.0439Z" fill="white"/>
</svg>
