<svg width="32" height="30" viewBox="0 0 32 30" fill="none" xmlns="http://www.w3.org/2000/svg">
<path d="M2.09953 13.0862C3.16066 4.86243 10.6644 -0.935882 18.8881 0.125247C27.1119 1.18638 32.9102 8.69007 31.849 16.9138C30.7879 25.1376 23.2842 30.9359 15.0605 29.8748C6.85566 28.8136 1.0384 21.3099 2.09953 13.0862Z" fill="#FFD05D"/>
<path d="M26.392 3.28967C27.5858 5.7909 28.0785 8.65216 27.6995 11.6082C26.6384 19.8319 19.1347 25.6302 10.9109 24.5691C8.04966 24.2091 5.49159 23.0532 3.40723 21.3668C5.52948 25.8387 9.79295 29.1736 15.0607 29.8368C23.2844 30.898 30.7881 25.0807 31.8493 16.8759C32.5504 11.5324 30.3144 6.45411 26.392 3.28967Z" fill="#FDC453"/>
<path d="M3.91905 14.9052C4.90438 7.26885 11.8775 1.88741 19.5139 2.87274C23.9668 3.4412 27.6618 6.07508 29.7651 9.67534C27.9081 5.22238 23.7963 1.86846 18.6801 1.20525C11.0438 0.21992 4.07064 5.62031 3.0853 13.2377C2.68738 16.4021 3.36953 19.4718 4.86648 22.0299C3.95694 19.8508 3.59692 17.4254 3.91905 14.9052Z" fill="#FFD77F"/>
<path d="M13.5261 11.3808C13.2418 10.2817 12.3133 9.46695 11.1954 9.31536C10.0774 9.16377 8.99731 9.71328 8.4478 10.6797C8.33411 10.8692 8.37201 11.0965 8.54254 11.2292C8.69413 11.3808 8.94047 11.3808 9.11101 11.2481C10.0395 10.547 11.4228 10.0733 12.7681 11.7597C12.8439 11.8545 12.9576 11.9113 13.0523 11.9303C13.1471 11.9492 13.2229 11.9303 13.3176 11.8924C13.4882 11.7976 13.5829 11.5892 13.5261 11.3808Z" fill="#303030"/>
<path d="M26.3161 13.0293C26.0319 11.9303 25.1034 11.1155 23.9854 10.9639C22.8674 10.8123 21.7874 11.3618 21.2378 12.3282C21.1241 12.5177 21.162 12.7451 21.3326 12.8777C21.4842 13.0293 21.7305 13.0293 21.901 12.8967C22.8295 12.1956 24.2128 11.7219 25.5581 13.4083C25.6339 13.503 25.7476 13.5599 25.8424 13.5788C25.9371 13.5978 26.0129 13.5788 26.1077 13.5409C26.2782 13.4462 26.3729 13.2378 26.3161 13.0293Z" fill="#303030"/>
<path d="M9.96349 16.9518V16.9328C10.153 15.4548 9.26239 13.9579 7.63279 13.7495C6.36323 13.56 5.49159 14.3937 5.13156 15.2275C4.97997 14.3369 4.35466 13.3136 3.0851 13.1431C1.47446 12.9347 0.223841 14.1663 0.0343538 15.6443V15.6633C-0.0224924 15.9854 -0.439364 19.2635 4.18413 22.5985C9.50872 20.552 9.92559 17.2739 9.96349 16.9518Z" fill="#EE5181"/>
<path d="M15.9137 23.2616C14.5683 23.0911 13.6019 21.8405 13.7724 20.4951C13.8482 19.9077 14.1325 19.3771 14.5493 18.9792C14.2272 18.4865 14.0946 17.8991 14.1704 17.3117C14.3409 15.9664 15.5915 15 16.9369 15.1705C17.7517 15.2842 18.4717 15.7769 18.8318 16.5348C18.9265 16.7433 18.8507 16.9896 18.6423 17.1033C18.4338 17.198 18.1875 17.1222 18.0738 16.9138C17.8275 16.4211 17.3727 16.0801 16.8232 16.0232C15.9326 15.9095 15.1178 16.5348 15.0041 17.4254C14.9473 17.9181 15.0989 18.4108 15.4399 18.7518C15.5347 18.8466 15.5726 18.9792 15.5536 19.0929C15.5347 19.2255 15.4589 19.3392 15.3452 19.3961C14.9283 19.6614 14.6441 20.0782 14.5872 20.5709C14.4736 21.4615 15.0989 22.2763 15.9895 22.39C16.52 22.4658 17.0506 22.2573 17.4106 21.8594C17.5622 21.6889 17.8275 21.6699 18.017 21.8215C18.1875 21.9731 18.2065 22.2384 18.0549 22.4279C17.5432 23.0721 16.7285 23.3753 15.9137 23.2616Z" fill="#5E4939"/>
</svg>
