<svg width="19" height="19" viewBox="0 0 19 19" fill="none" xmlns="http://www.w3.org/2000/svg">
<g opacity="0.5">
<path d="M1.17443 14.071C-1.34949 9.47593 0.327531 3.69859 4.93096 1.17467C9.526 -1.34925 15.3033 0.336157 17.8273 4.9312C20.3512 9.52624 18.6658 15.3036 14.0707 17.8275C9.47569 20.3514 3.69835 18.666 1.17443 14.071Z" fill="#F94343"/>
<path d="M9.95375 0C11.4966 0.838511 12.8215 2.11305 13.727 3.76492C16.251 8.35996 14.5656 14.1373 9.97052 16.6612C8.37735 17.5417 6.63325 17.9106 4.93945 17.8267C7.68977 19.3277 11.1193 19.4367 14.0625 17.8184C18.6575 15.2944 20.3429 9.5171 17.819 4.92206C16.1755 1.92019 13.1401 0.159317 9.95375 0Z" fill="#E53939"/>
<path d="M2.78415 14.3299C0.444705 10.0535 2.00434 4.69545 6.27236 2.35601C8.77112 0.989235 11.6388 0.94731 14.0537 2.01222C11.4544 0.427433 8.09193 0.234575 5.22422 1.81098C0.956197 4.15042 -0.603434 9.51689 1.7444 13.7849C2.71707 15.5626 4.20962 16.8623 5.93695 17.6169C4.65403 16.8371 3.55558 15.7303 2.78415 14.3299Z" fill="#F76363"/>
<path d="M13.869 5.84424C13.8606 5.83586 13.8606 5.82747 13.8606 5.81909C13.0556 4.35169 11.2612 3.59703 9.66806 4.46908C8.40191 5.16505 8.16713 6.47313 8.38514 7.46257C7.66402 6.74983 6.43141 6.23834 5.17364 6.93431C3.58047 7.80636 3.26184 9.72655 4.05842 11.1939C4.06681 11.2023 4.06681 11.2107 4.07519 11.2191C4.24289 11.5461 6.02892 14.7828 12.3765 14.7325C15.8227 9.39953 14.0535 6.15449 13.869 5.84424Z" fill="white"/>
</g>
</svg>
