<svg width="25" height="25" viewBox="0 0 25 25" fill="none" xmlns="http://www.w3.org/2000/svg">
<g opacity="0.6">
<path d="M0.266618 9.94207C1.67683 3.18953 8.29555 -1.14403 15.0584 0.26618C21.8109 1.67639 26.1445 8.29511 24.7343 15.0579C23.3241 21.8105 16.7053 26.144 9.9425 24.7338C3.17968 23.3133 -1.14359 16.6946 0.266618 9.94207Z" fill="#FFD05D"/>
<path d="M21.0804 3.39539C21.9039 5.54673 22.1303 7.9554 21.6259 10.3847C20.2157 17.1372 13.597 21.4708 6.8342 20.0606C4.48728 19.5665 2.43887 18.4548 0.8125 16.921C2.27418 20.7708 5.60927 23.8177 9.94283 24.7235C16.6954 26.1337 23.3141 21.8002 24.7346 15.0476C25.6507 10.6317 24.1273 6.27756 21.0804 3.39539Z" fill="#FDC453"/>
<path d="M1.65583 11.5788C2.96311 5.31002 9.11862 1.28527 15.3874 2.60283C19.0518 3.36455 21.9443 5.78352 23.4575 8.92304C22.2119 5.10415 19.0107 2.04699 14.8006 1.17204C8.53189 -0.155823 2.38667 3.86893 1.0794 10.1377C0.533842 12.7419 0.914702 15.3256 1.98523 17.549C1.36762 15.6859 1.22351 13.6375 1.65583 11.5788Z" fill="#FFD77F"/>
<path d="M7.10136 13.2977C6.85431 12.9272 6.27788 13.1639 6.34993 13.5962C6.78226 16.0461 8.65568 18.1048 11.2393 18.64C13.7818 19.1753 16.2729 18.0842 17.6625 16.077C17.9198 15.7064 17.4772 15.2535 17.1066 15.5005C14.9553 16.8696 10.632 18.5371 7.10136 13.2977Z" fill="#5E4939"/>
<path d="M9.706 10.0861C9.54131 9.14942 8.83106 8.41858 7.90464 8.22301C6.98852 8.02743 6.06211 8.40829 5.52684 9.17001C5.42391 9.31412 5.4445 9.50969 5.56802 9.64351C5.69154 9.77732 5.88712 9.79791 6.03123 9.70527C6.84441 9.1906 8.02816 8.88179 9.03693 10.3743C9.08839 10.4567 9.18104 10.5082 9.27368 10.5288C9.34573 10.539 9.41779 10.539 9.48984 10.5082C9.64424 10.4258 9.73688 10.2611 9.706 10.0861Z" fill="#303030"/>
<path d="M20.2158 12.2788C20.0511 11.342 19.3408 10.6112 18.4144 10.4156C17.4983 10.2201 16.5719 10.6009 16.0366 11.3626C15.9337 11.5067 15.9543 11.7023 16.0778 11.8361C16.2013 11.97 16.3969 11.9905 16.541 11.8979C17.3542 11.3832 18.5379 11.0744 19.5467 12.567C19.5982 12.6493 19.6908 12.7008 19.7834 12.7214C19.8555 12.7317 19.9276 12.7317 19.9996 12.7008C20.154 12.6287 20.2466 12.4537 20.2158 12.2788Z" fill="#303030"/>
<path d="M5.26897 12.8551C5.02193 14.0388 3.86906 14.7903 2.6853 14.5432C1.50155 14.3065 0.750127 13.1433 0.997171 11.9699C1.24422 10.7861 2.39709 10.0347 3.58084 10.2817C4.76459 10.5288 5.50572 11.6816 5.26897 12.8551Z" fill="#F5A6AC"/>
<path d="M23.2524 16.6226C23.0053 17.8063 21.8525 18.5578 20.6687 18.3107C19.485 18.0637 18.7335 16.9108 18.9806 15.7271C19.2276 14.5433 20.3805 13.7919 21.5642 14.0389C22.748 14.286 23.4994 15.4388 23.2524 16.6226Z" fill="#F5A6AC"/>
</g>
</svg>
