<svg width="30" height="29" viewBox="0 0 30 29" fill="none" xmlns="http://www.w3.org/2000/svg">
<g opacity="0.5">
<path d="M1.96973 12.2771C2.96526 4.56182 10.005 -0.878022 17.7204 0.117504C25.4357 1.11303 30.8755 8.15282 29.88 15.8681C28.8845 23.5835 21.8447 29.0233 14.1294 28.0278C6.43182 27.0323 0.974209 19.9925 1.96973 12.2771Z" fill="#FFD05D"/>
<path d="M24.7601 3.08618C25.8801 5.43278 26.3423 8.11714 25.9867 10.8904C24.9912 18.6057 17.9514 24.0456 10.2361 23.05C7.55171 22.7123 5.15179 21.6279 3.19629 20.0457C5.18734 24.2411 9.18722 27.3699 14.1293 27.9921C21.8446 28.9876 28.8844 23.53 29.8799 15.8325C30.5377 10.8193 28.44 6.05498 24.7601 3.08618Z" fill="#FDC453"/>
<path d="M3.677 13.9843C4.60142 6.82003 11.1434 1.77129 18.3077 2.69571C22.4853 3.22902 25.9519 5.70006 27.9252 9.07774C26.183 4.90008 22.3253 1.75351 17.5255 1.13131C10.3612 0.206892 3.81922 5.27341 2.8948 12.4199C2.52148 15.3887 3.16146 18.2686 4.56587 20.6685C3.71256 18.6241 3.37479 16.3486 3.677 13.9843Z" fill="#FFD77F"/>
<path d="M12.6895 10.6773C12.4229 9.64624 11.5518 8.88182 10.5029 8.7396C9.45407 8.59738 8.44077 9.11292 7.92523 10.0196C7.81856 10.1973 7.85412 10.4107 8.01411 10.5351C8.15633 10.6773 8.38744 10.6773 8.54743 10.5529C9.41852 9.89512 10.7163 9.45069 11.9784 11.0329C12.0496 11.1217 12.1562 11.1751 12.2451 11.1929C12.334 11.2106 12.4051 11.1929 12.494 11.1573C12.654 11.0684 12.7429 10.8729 12.6895 10.6773Z" fill="#303030"/>
<path d="M24.6895 12.2238C24.4229 11.1927 23.5518 10.4283 22.5029 10.2861C21.4541 10.1439 20.4408 10.6594 19.9252 11.5661C19.8186 11.7438 19.8541 11.9572 20.0141 12.0816C20.1563 12.2238 20.3874 12.2238 20.5474 12.0994C21.4185 11.4416 22.7163 10.9972 23.9784 12.5794C24.0495 12.6683 24.1562 12.7216 24.2451 12.7394C24.334 12.7571 24.4051 12.7394 24.494 12.7038C24.654 12.6149 24.7429 12.4194 24.6895 12.2238Z" fill="#303030"/>
<path d="M9.34751 15.9039V15.8861C9.52528 14.4995 8.68975 13.0951 7.16091 12.8995C5.96983 12.7217 5.15208 13.5039 4.81431 14.2861C4.67209 13.4506 4.08544 12.4906 2.89437 12.3306C1.3833 12.1351 0.210002 13.2906 0.0322299 14.6772V14.695C-0.0211019 14.9972 -0.412201 18.0727 3.92545 21.2015C8.92085 19.2815 9.31195 16.2061 9.34751 15.9039Z" fill="#EE5181"/>
<path d="M14.9295 21.8234C13.6673 21.6634 12.7607 20.4901 12.9207 19.228C12.9918 18.6769 13.2584 18.1791 13.6495 17.8058C13.3473 17.3436 13.2229 16.7925 13.294 16.2414C13.454 14.9792 14.6273 14.0725 15.8895 14.2325C16.6539 14.3392 17.3294 14.8014 17.6672 15.5125C17.7561 15.7081 17.685 15.9392 17.4894 16.0458C17.2939 16.1347 17.0628 16.0636 16.9561 15.8681C16.725 15.4058 16.2983 15.0859 15.7828 15.0325C14.9473 14.9259 14.1828 15.5125 14.0762 16.348C14.0228 16.8102 14.1651 17.2725 14.4851 17.5924C14.5739 17.6813 14.6095 17.8058 14.5917 17.9124C14.5739 18.0369 14.5028 18.1435 14.3962 18.1969C14.0051 18.4458 13.7384 18.8369 13.6851 19.2991C13.5784 20.1346 14.1651 20.899 15.0006 21.0057C15.4984 21.0768 15.9961 20.8812 16.3339 20.5079C16.4761 20.3479 16.725 20.3301 16.9028 20.4724C17.0628 20.6146 17.0805 20.8635 16.9383 21.0412C16.4583 21.6457 15.6939 21.9301 14.9295 21.8234Z" fill="#5E4939"/>
</g>
</svg>
