<svg width="30" height="30" viewBox="0 0 30 30" fill="none" xmlns="http://www.w3.org/2000/svg">
<path d="M0.483175 11.2363C2.5586 3.22813 10.7555 -1.59356 18.7637 0.481863C26.7719 2.55729 31.5936 10.7542 29.5181 18.7624C27.4427 26.7706 19.2458 31.5922 11.2376 29.4959C3.20848 27.4414 -1.59225 19.2445 0.483175 11.2363Z" fill="#FFCB27"/>
<path d="M25.8072 4.59082C26.6667 7.23227 26.8134 10.1253 26.0587 12.9973C23.9833 21.0055 15.7864 25.8272 7.77824 23.7518C4.99004 23.0181 2.60016 21.5716 0.734375 19.6429C2.26474 24.3388 6.08016 28.1752 11.2163 29.5169C19.2245 31.5923 27.4214 26.7916 29.4968 18.7624C30.8804 13.5214 29.3081 8.21757 25.8072 4.59082Z" fill="#F9C021"/>
<path d="M2.05569 13.2696C3.98437 5.82747 11.5943 1.36216 19.0364 3.29084C23.3969 4.42289 26.7092 7.48361 28.3444 11.32C27.0656 6.66602 23.4179 2.82963 18.4075 1.52987C10.9653 -0.398803 3.35545 4.0665 1.42677 11.5087C0.651111 14.6113 0.944605 17.7349 2.09762 20.4602C1.48967 18.1752 1.42677 15.7224 2.05569 13.2696Z" fill="#FFD95F"/>
<path d="M24.6131 15.0934C24.5921 14.8209 24.4244 14.5903 24.1938 14.4854L18.9528 12.2842L17.7998 6.72882C17.7369 6.45629 17.5483 6.26761 17.2967 6.18376C17.0451 6.12086 16.7726 6.20472 16.5839 6.41436L12.8733 10.691L7.23403 10.0621C6.9615 10.0411 6.70993 10.1459 6.56319 10.3765C6.41644 10.6071 6.41644 10.8797 6.56319 11.1103L9.49813 15.9739L7.15017 21.1729C7.04535 21.4245 7.08728 21.697 7.25499 21.9067C7.4227 22.1163 7.69523 22.2002 7.96776 22.1373L13.5022 20.8375L17.695 24.6529C17.7789 24.7368 17.8837 24.7787 17.9885 24.8206C18.1352 24.8626 18.282 24.8416 18.4287 24.7997C18.6803 24.6949 18.848 24.4643 18.869 24.2127L19.3511 18.5524L24.2777 15.7433C24.4873 15.5965 24.634 15.345 24.6131 15.0934Z" fill="white"/>
</svg>
