<svg width="40" height="40" viewBox="0 0 40 40" fill="none" xmlns="http://www.w3.org/2000/svg">
<path d="M0.579491 24.7676C-2.0485 14.0463 4.50984 3.2088 15.2311 0.580813C25.9523 -2.04717 36.7899 4.48791 39.4179 15.2324C42.0459 25.9537 35.5108 36.7912 24.7663 39.4192C14.045 42.0472 3.20748 35.5121 0.579491 24.7676Z" fill="#4A85D3"/>
<path d="M26.0923 0.929932C28.7668 3.46489 30.7669 6.79057 31.7204 10.6279C34.3484 21.3491 27.8133 32.1867 17.0688 34.8147C13.3478 35.7217 9.60346 35.5356 6.20801 34.4426C10.9756 38.9776 17.906 41.0707 24.7667 39.3729C35.488 36.745 42.0463 25.9074 39.4183 15.1862C37.6973 8.20922 32.4879 2.9765 26.0923 0.929932Z" fill="#407EC1"/>
<path d="M3.71956 26.1866C1.27762 16.2095 7.37083 6.16271 17.3246 3.72078C23.1387 2.27887 28.9994 3.76729 33.3484 7.25577C28.9064 2.62772 22.1852 0.418352 15.4874 2.04631C5.53356 4.48824 -0.559642 14.5583 1.88229 24.5121C2.90558 28.6518 5.23123 32.117 8.32435 34.5822C6.16149 32.303 4.53353 29.4425 3.71956 26.1866Z" fill="#5B9ADD"/>
<path d="M30.0685 12.6507L26.9754 13.4181L25.7195 13.7205L23.3241 14.3019C23.1613 14.3484 22.9752 14.2089 22.9985 14.0461C23.045 12.9995 22.7892 11.953 22.5566 10.9529C22.4171 10.3948 22.3008 9.76686 22.0915 9.18545C21.8822 8.58078 21.5798 8.04588 21.1147 7.65052C20.5798 7.2319 19.9054 6.99934 19.2309 7.16213C17.696 7.53424 17.8123 9.11568 17.9751 10.3715C18.1611 11.8367 18.4635 13.3251 18.1379 14.7903C17.9286 15.8136 17.4867 16.7671 16.603 17.395C15.9285 17.8834 15.4169 18.2555 14.6727 18.6043C14.5564 18.6508 14.4866 18.7904 14.5331 18.9067L16.9751 28.8837C17.0216 29.0233 17.1611 29.1163 17.3006 29.0698L20.0682 28.3953C20.1612 28.3721 20.231 28.3953 20.3007 28.4418C21.0217 29.0465 21.9985 29.3023 22.9985 29.0465L27.2777 28L30.3941 27.2325L31.6267 26.9302C32.8825 26.6278 33.6732 25.3255 33.3476 24.0696C33.2779 23.744 33.1151 23.4649 32.9058 23.2091C32.8127 23.1161 32.8127 22.9766 32.9058 22.8835C33.2779 22.3951 33.3709 21.4649 33.2081 20.837L33.1383 20.5811C33.0686 20.2555 32.9058 19.9765 32.6965 19.7206C32.6267 19.6276 32.6034 19.4881 32.6965 19.3951C33.0686 18.9067 33.2314 18.2555 33.0686 17.6276L32.9988 17.3717C32.929 17.0461 32.7662 16.7671 32.5569 16.5113C32.4639 16.4182 32.4639 16.2787 32.5569 16.1857C32.929 15.6973 33.0918 15.0461 32.929 14.4182C32.6034 13.1158 31.3243 12.3483 30.0685 12.6507Z" fill="white"/>
<path d="M15.2313 30.6515L11.1614 31.6515C10.8126 31.7445 10.4637 31.5352 10.3939 31.1864L7.60316 19.8139C7.51013 19.4651 7.71944 19.1163 8.06829 19.0232L12.1382 18.0232C12.487 17.9302 12.8359 18.1395 12.9056 18.4883L15.6964 29.8608C15.7894 30.2329 15.5801 30.5817 15.2313 30.6515Z" fill="white"/>
</svg>
