<svg width="23" height="23" viewBox="0 0 23 23" fill="none" xmlns="http://www.w3.org/2000/svg">
<path d="M0.333207 14.2414C-1.17788 8.07664 2.59316 1.84506 8.75788 0.333968C14.9226 -1.17712 21.1542 2.58055 22.6653 8.75864C24.1764 14.9234 20.4187 21.1549 14.2406 22.666C8.07588 24.1771 1.8443 20.4195 0.333207 14.2414Z" fill="#4A85D3"/>
<path d="M15.0028 0.534668C16.5407 1.99227 17.6907 3.90454 18.239 6.111C19.7501 12.2757 15.9924 18.5073 9.81429 20.0184C7.67469 20.5399 5.52172 20.4329 3.56934 19.8044C6.3107 22.4121 10.2957 23.6156 14.2406 22.6394C20.4053 21.1283 24.1763 14.8967 22.6653 8.73201C21.6757 4.72026 18.6803 1.71145 15.0028 0.534668Z" fill="#407EC1"/>
<path d="M2.13855 15.0571C0.734438 9.32033 4.23803 3.54342 9.96146 2.13931C13.3046 1.31021 16.6745 2.16605 19.1751 4.17192C16.621 1.5108 12.7563 0.240412 8.90503 1.17649C3.1816 2.5806 -0.321989 8.37089 1.08212 14.0943C1.67051 16.4746 3.00776 18.4671 4.7863 19.8846C3.54266 18.5741 2.60659 16.9293 2.13855 15.0571Z" fill="#5B9ADD"/>
<path d="M17.2898 7.27434L15.5113 7.71564L14.7892 7.88948L13.4118 8.22379C13.3182 8.25053 13.2112 8.1703 13.2246 8.07669C13.2513 7.47493 13.1042 6.87317 12.9705 6.29815C12.8903 5.97721 12.8234 5.61615 12.7031 5.28184C12.5827 4.93416 12.4089 4.62659 12.1414 4.39926C11.8339 4.15855 11.4461 4.02483 11.0583 4.11843C10.1757 4.33239 10.2425 5.24172 10.3361 5.96384C10.4431 6.80631 10.617 7.66215 10.4297 8.50461C10.3094 9.093 10.0553 9.64127 9.54716 10.0023C9.15936 10.2832 8.86516 10.4971 8.43724 10.6977C8.37038 10.7244 8.33027 10.8047 8.35701 10.8715L9.76112 16.6083C9.78787 16.6886 9.8681 16.7421 9.94834 16.7153L11.5397 16.3275C11.5932 16.3141 11.6333 16.3275 11.6734 16.3543C12.0879 16.702 12.6496 16.849 13.2246 16.702L15.6851 16.1002L17.4771 15.6589L18.1858 15.4851C18.9079 15.3112 19.3626 14.5624 19.1754 13.8402C19.1352 13.653 19.0416 13.4926 18.9213 13.3455C18.8678 13.292 18.8678 13.2117 18.9213 13.1582C19.1352 12.8774 19.1887 12.3425 19.0951 11.9815L19.055 11.8344C19.0149 11.6471 18.9213 11.4867 18.8009 11.3396C18.7608 11.2861 18.7474 11.2059 18.8009 11.1524C19.0149 10.8715 19.1085 10.4971 19.0149 10.1361L18.9748 9.98896C18.9347 9.80174 18.841 9.64127 18.7207 9.49418C18.6672 9.44069 18.6672 9.36045 18.7207 9.30696C18.9347 9.02614 19.0283 8.65171 18.9347 8.29065C18.7474 7.54179 18.012 7.1005 17.2898 7.27434Z" fill="white"/>
<path d="M8.75826 17.6246L6.41807 18.1996C6.21749 18.2531 6.0169 18.1327 5.97678 17.9321L4.37208 11.393C4.31859 11.1924 4.43895 10.9918 4.63953 10.9383L6.97972 10.3633C7.18031 10.3098 7.38089 10.4302 7.42101 10.6307L9.02571 17.1699C9.0792 17.3839 8.95885 17.5844 8.75826 17.6246Z" fill="white"/>
</svg>
